<?xml version="1.0" standalone="no"?>
<!DOCTYPE svg PUBLIC "-//W3C//DTD SVG 20010904//EN"
 "http://www.w3.org/TR/2001/REC-SVG-20010904/DTD/svg10.dtd">
<svg version="1.0" xmlns="http://www.w3.org/2000/svg"
 width="700.000000pt" height="700.000000pt" viewBox="0 0 700.000000 700.000000"
 preserveAspectRatio="xMidYMid meet">
<metadata>
Created by potrace 1.14, written by Peter Selinger 2001-2017
</metadata>
<g transform="translate(0.000000,700.000000) scale(0.100000,-0.100000)"
fill="#000000" stroke="none">
<path d="M1539 6985 c-732 -89 -1334 -632 -1493 -1348 -87 -389 -43 -784 129
-1143 206 -429 579 -755 1035 -904 174 -58 175 -58 335 -15 388 103 750 246
844 334 43 40 47 70 23 166 -55 226 -314 740 -499 995 l-47 64 64 -47 c255
-185 768 -443 996 -499 95 -24 125 -20 165 23 86 92 236 470 334 843 43 162
43 165 -16 340 -266 797 -1042 1291 -1870 1191z"/>
<path d="M5000 6984 c-701 -102 -1275 -620 -1455 -1314 -15 -58 -15 -62 15
-181 46 -180 115 -396 177 -554 102 -259 173 -365 245 -365 153 0 697 252
1027 476 51 35 95 64 97 64 3 0 -13 -24 -35 -52 -100 -135 -295 -490 -394
-718 -72 -164 -107 -278 -107 -344 0 -50 3 -56 40 -90 101 -91 459 -232 855
-337 141 -37 164 -36 320 16 538 177 961 603 1130 1136 186 586 51 1223 -358
1690 -276 315 -677 525 -1107 578 -114 15 -333 12 -450 -5z"/>
<path d="M1295 3445 c-422 -121 -762 -365 -996 -714 -399 -594 -401 -1357 -4
-1951 436 -652 1259 -936 1999 -690 534 178 946 592 1121 1125 53 160 53 177
11 340 -100 380 -248 748 -339 843 -27 28 -37 32 -85 32 -153 0 -719 -265
-1039 -486 -35 -24 -63 -41 -63 -38 0 4 15 27 34 53 47 64 171 274 244 411
131 248 237 513 249 621 5 54 4 57 -32 98 -66 72 -331 189 -651 286 -129 39
-343 95 -359 94 -5 0 -46 -11 -90 -24z"/>
<path d="M5480 3439 c-388 -100 -782 -255 -876 -344 -30 -28 -34 -38 -34 -81
0 -99 63 -270 199 -544 92 -184 189 -354 275 -483 l62 -93 -100 67 c-140 92
-273 168 -466 265 -281 141 -453 204 -554 204 -42 0 -53 -4 -81 -34 -89 -95
-242 -483 -340 -860 l-35 -139 25 -95 c82 -308 259 -605 491 -821 691 -645
1745 -637 2417 18 255 248 415 533 491 872 70 312 53 636 -48 944 -39 117
-156 347 -231 450 -206 287 -495 509 -815 628 -77 29 -247 78 -262 77 -1 -1
-55 -14 -118 -31z"/>
</g>
</svg>
