<?xml version="1.0" encoding="UTF-8" standalone="no"?><!DOCTYPE svg PUBLIC "-//W3C//DTD SVG 1.1//EN" "http://www.w3.org/Graphics/SVG/1.1/DTD/svg11.dtd"><svg width="100%" height="100%" viewBox="0 0 493 682" version="1.1" xmlns="http://www.w3.org/2000/svg" xmlns:xlink="http://www.w3.org/1999/xlink" xml:space="preserve" xmlns:serif="http://www.serif.com/" style="fill-rule:evenodd;clip-rule:evenodd;stroke-linejoin:round;stroke-miterlimit:2;"><g id="_2641249062960"><path d="M246.038,681.254c-10.819,-40.445 -55.929,-47.243 -103.1,-70.26c-89.561,-43.703 -140.642,-118.925 -142.219,-223.334c-1.618,-107.165 0,-214.353 0,-321.53c31.999,-10.667 52.619,-32.71 61.863,-66.13l366.91,0c9.244,33.42 29.865,55.463 61.863,66.13c-0,107.177 1.618,214.365 -0,321.53c-1.577,104.409 -52.658,179.631 -142.219,223.334c-47.171,23.017 -92.281,29.815 -103.098,70.26Z" style="fill:#0087d0;"/><path d="M246.038,652.045c0.293,-0.362 0.589,-0.724 0.89,-1.082c11.554,-13.745 27.76,-22.38 43.921,-29.547c17.404,-7.719 35.238,-14.132 52.392,-22.503c87.006,-42.457 133.206,-114.308 134.674,-211.456c1.57,-104.007 0.089,-208.024 0.003,-312.035c-28.374,-11.992 -47.795,-33.059 -58.248,-61.98l-347.265,0c-10.454,28.921 -29.875,49.988 -58.248,61.98c-0.087,104.011 -1.568,208.028 0.003,312.035c1.467,97.148 47.667,168.999 134.673,211.456c17.154,8.371 34.988,14.784 52.392,22.503c16.161,7.167 32.367,15.802 43.921,29.547c0.301,0.358 0.599,0.72 0.892,1.082Z" style="fill:#fefefe;"/><path d="M410.705,269.851l-0,-156.79c-11.764,-9.383 -22.111,-20.237 -30.935,-32.411l-267.465,0c-8.824,12.174 -19.172,23.028 -30.935,32.411l-0,156.79l63.67,0l0,-22.063c-57.291,-37.735 -38.306,-95.367 21.919,-104.577c29.569,-4.521 64.479,-4.594 79.079,-33.792c14.598,29.198 49.508,29.271 79.077,33.792c60.225,9.21 79.21,66.842 21.919,104.577l-0,22.063l63.671,0Z" style="fill:#fff000;"/><path d="M410.705,381.261l-0,-103.944l-15.344,-0l-0,182.171c9.718,-22.178 15.344,-48.233 15.344,-78.227Zm-42.077,-103.944l-24.463,-0l-0,245.792c8.803,-6.334 17.021,-13.639 24.463,-21.925l-0,-223.867Zm-61.794,-0l-40.531,-0l0,275.463c13.837,-1.603 27.484,-4.821 40.531,-9.721l-0,-265.742Zm-82.128,-0l-143.336,-0l-0,103.944c-0,105.18 68.696,162.301 143.336,171.4l-0,-275.344Z" style="fill:#0087d0;"/><path d="M152.186,253.987l11.635,-0l0,-71.522l29.365,-0l-0,-25.362l28.474,0l-0,-22.69l18.241,-0l-0,119.574l12.272,-0l0,-119.574l18.243,-0l-0,22.69l28.474,0l-0,25.362l29.363,-0l0,71.522l11.635,-0l0,15.864l-187.702,0l0,-15.864Zm29.877,-0l11.123,-0l-0,-63.648l-11.123,0l0,63.648Zm29.364,-0l10.233,-0l-0,-89.008l-10.233,-0l-0,89.008Zm58.989,-0l10.232,-0l-0,-89.008l-10.232,-0l-0,89.008Zm28.474,-0l11.122,-0l0,-63.648l-11.122,0l-0,63.648Z"/><path d="M246.038,611.896c-80.671,0 -151.373,-42.716 -190.748,-106.752c13.868,-8.378 27.735,-16.757 41.604,-25.135c30.856,49.972 86.112,83.286 149.144,83.286c63.03,-0 118.286,-33.314 149.143,-83.286c13.868,8.378 27.735,16.757 41.604,25.135c-39.375,64.036 -110.077,106.752 -190.747,106.752Zm194.372,-112.861c6.417,-11.216 11.893,-23.039 16.315,-35.364c-14.231,-8.598 -28.461,-17.195 -42.691,-25.793c-3.746,12.662 -8.888,24.723 -15.242,36.011c13.872,8.382 27.745,16.763 41.618,25.146Zm18.655,-42.25c6.977,-21.641 10.756,-44.716 10.756,-68.675c0,-0.332 -0.001,-0.664 -0.001,-0.995c-8.111,4.951 -16.22,9.902 -24.33,14.853c-8.333,-9.996 -16.668,-19.991 -25.004,-29.987c0.486,5.313 0.734,10.691 0.734,16.129c-0,14.709 -1.821,28.994 -5.239,42.644c14.361,8.677 28.723,17.354 43.084,26.031Zm-407.401,42.25c-6.417,-11.216 -11.893,-23.039 -16.314,-35.364c14.23,-8.598 28.461,-17.195 42.691,-25.793c3.745,12.662 8.888,24.723 15.242,36.011c-13.873,8.382 -27.746,16.763 -41.619,25.146Zm-18.655,-42.25c-6.976,-21.641 -10.756,-44.716 -10.756,-68.675c0.001,-0.332 0.001,-0.664 0.002,-0.995c8.11,4.951 16.219,9.902 24.329,14.853c8.335,-9.996 16.669,-19.991 25.004,-29.987c-0.485,5.313 -0.734,10.691 -0.734,16.129c0,14.709 1.823,28.994 5.241,42.644c-14.362,8.677 -28.725,17.354 -43.086,26.031Z" style="fill:#e62129;"/><path d="M76.847,512.805l19.178,-14.452l2.916,3.872l-19.178,14.452l-2.916,-3.872Zm5.809,7.343l18.124,-15.754l4.761,5.477l-9.507,14.034l15.188,-7.498l4.772,5.49l-18.123,15.754l-2.953,-3.397l14.268,-12.402l-17.397,8.803l-3.062,-3.523l11.148,-15.99l-14.266,12.403l-2.953,-3.397Zm34.899,35.13l-3.921,-3.532l2.093,-5.458l-7.134,-6.424l-5.123,2.731l-3.823,-3.442l23.02,-11.586l3.81,3.431l-8.922,24.28Zm-0.279,-13.035l3.505,-8.837l-8.373,4.454l4.868,4.383Zm2.933,14.105l13.774,-19.672l3.866,2.707l-1.146,18.773l9.197,-13.135l3.691,2.585l-13.774,19.67l-3.988,-2.793l1.054,-18.38l-8.982,12.829l-3.692,-2.584Zm46.734,26.871l-4.784,-2.23l0.405,-5.832l-8.7,-4.057l-4.099,4.109l-4.662,-2.174l18.626,-17.811l4.646,2.167l-1.432,25.828Zm-4.079,-12.383l0.767,-9.475l-6.705,6.706l5.938,2.769Zm6.377,13.334l7.42,-22.839l6.902,2.243l-0.92,16.926l9.157,-14.25l6.918,2.248l-7.421,22.837l-4.28,-1.39l5.842,-17.978l-10.378,16.504l-4.439,-1.442l1.32,-19.448l-5.842,17.979l-4.279,-1.39Zm47.997,12.584l-5.181,-1.006l-1.018,-5.757l-9.424,-1.832l-2.983,4.979l-5.049,-0.982l13.764,-21.787l5.033,0.979l4.858,25.406Zm-6.953,-11.028l-1.548,-9.38l-4.884,8.13l6.432,1.25Zm9.331,11.009l2.093,-23.923l4.701,0.412l8.394,16.83l1.399,-15.973l4.489,0.392l-2.093,23.923l-4.852,-0.425l-8.276,-16.445l-1.365,15.602l-4.49,-0.393Zm31.376,-22.337l4.83,-0.422l1.133,12.955c0.179,2.056 0.357,3.386 0.528,3.984c0.291,0.963 0.856,1.704 1.683,2.226c0.83,0.528 1.92,0.73 3.269,0.612c1.37,-0.119 2.381,-0.488 3.028,-1.111c0.647,-0.618 1.005,-1.347 1.074,-2.171c0.072,-0.832 0.021,-2.191 -0.145,-4.084l-1.158,-13.235l4.83,-0.422l1.099,12.565c0.252,2.874 0.3,4.912 0.142,6.122c-0.158,1.209 -0.549,2.249 -1.18,3.129c-0.629,0.875 -1.514,1.608 -2.642,2.195c-1.133,0.589 -2.649,0.961 -4.543,1.127c-2.284,0.2 -4.039,0.09 -5.266,-0.337c-1.226,-0.425 -2.217,-1.028 -2.975,-1.81c-0.759,-0.781 -1.288,-1.628 -1.585,-2.532c-0.439,-1.343 -0.772,-3.351 -1.005,-6.03l-1.117,-12.761Zm26.234,22.256l-5.401,-23.399l7.071,-1.632l7.927,14.983l0.511,-16.931l7.088,-1.636l5.402,23.398l-4.386,1.012l-4.253,-18.419l-0.394,19.493l-4.549,1.049l-8.883,-17.35l4.252,18.42l-4.385,1.012Zm47.937,-13.746l-4.959,1.806l-3.836,-4.411l-9.022,3.284l0.006,5.804l-4.833,1.759l0.577,-25.763l4.817,-1.754l17.25,19.275Zm-11.64,-5.872l-6.157,-7.243l0.002,9.485l6.155,-2.242Zm14.116,5.308l-10.527,-21.584l4.242,-2.068l15.864,10.104l-7.029,-14.413l4.05,-1.974l10.526,21.582l-4.377,2.135l-15.564,-9.833l6.866,14.076l-4.051,1.975Zm46.449,-27.156l-4.323,3.028l-4.848,-3.268l-7.864,5.508l1.508,5.604l-4.213,2.95l-6.111,-25.036l4.2,-2.941l21.651,14.155Zm-12.763,-2.66l-7.822,-5.402l2.455,9.16l5.367,-3.758Zm14.989,1.137l-16.067,-17.845l5.393,-4.857l14.198,9.26l-7.763,-15.054l5.406,-4.867l16.068,17.845l-3.344,3.012l-12.649,-14.048l9.104,17.239l-3.469,3.124l-16.181,-10.868l12.649,14.048l-3.345,3.011Zm20.361,-18.872l-17.561,-16.378l3.306,-3.544l17.561,16.377l-3.306,3.545Zm6.641,-6.967l-18.663,-15.112l2.969,-3.667l18.649,2.453l-12.462,-10.091l2.835,-3.502l18.662,15.112l-3.064,3.784l-18.262,-2.334l12.17,9.855l-2.834,3.502Z" style="fill:#fefefe;fill-rule:nonzero;"/></g></svg>